# Blender v2.80 (sub 75) OBJ File: ''
# www.blender.org
mtllib arena_warehouse.mtl
o Cube
v 12.000000 -8.000000 0.010000
v 12.000000 -8.000000 -0.010000
v -12.000000 -8.000000 0.010000
v -12.000000 -8.000000 -0.010000
v 12.000000 8.000000 0.010000
v 12.000000 8.000000 -0.010000
v -12.000000 8.000000 0.010000
v -12.000000 8.000000 -0.010000
vt 1.001578 0.000440
vt 1.001578 0.995050
vt 0.001591 0.995050
vt 0.001591 0.000440
vt 0.222847 0.666667
vt 0.222846 0.333333
vt 0.445693 0.333333
vt 0.445693 0.666667
vt 0.445693 0.333333
vt 0.222847 0.333333
vt 0.222846 0.000000
vt 0.445693 0.000000
vt 0.992032 0.989213
vt 0.004222 0.989213
vt 0.004222 -0.008821
vt 0.992032 -0.008821
vt 0.222846 0.333333
vt 0.000000 0.333333
vt 0.000000 0.000000
vt 0.222846 0.000000
vt 0.222846 0.666667
vt 0.000000 0.666667
vn 0.0000 0.0000 1.0000
vn -1.0000 0.0000 0.0000
vn 0.0000 1.0000 0.0000
vn 0.0000 0.0000 -1.0000
vn 0.0000 -1.0000 0.0000
vn 1.0000 0.0000 0.0000
g Cube_Cube_Material
usemtl Material
s off
f 1/1/1 5/2/1 7/3/1 3/4/1
f 4/5/2 3/6/2 7/7/2 8/8/2
f 8/9/3 7/10/3 5/11/3 6/12/3
f 6/13/4 2/14/4 4/15/4 8/16/4
f 2/17/5 1/18/5 3/19/5 4/20/5
f 6/21/6 5/22/6 1/18/6 2/17/6
