# Blender v2.80 (sub 75) OBJ File: ''
# www.blender.org
mtllib lidar.mtl
o Cube
v 0.040000 -0.040000 0.040000
v 0.040000 -0.040000 -0.040000
v -0.040000 -0.040000 0.040000
v -0.040000 -0.040000 -0.040000
v 0.040000 0.040000 0.040000
v 0.040000 0.040000 -0.040000
v -0.040000 0.040000 0.040000
v -0.040000 0.040000 -0.040000
vt 0.748501 0.666667
vt 0.748501 1.000000
vt 0.498430 1.000000
vt 0.498430 0.666667
vt 0.250071 0.666667
vt 0.250070 0.333333
vt 0.500141 0.333333
vt 0.500141 0.666667
vt 0.998571 0.668366
vt 0.748501 0.668366
vt 0.748501 0.335032
vt 0.998571 0.335032
vt 0.750211 0.333333
vt 0.500141 0.333333
vt 0.500141 0.000000
vt 0.750211 0.000000
vt 0.750262 0.666264
vt 0.500192 0.666265
vt 0.500191 0.332931
vt 0.750262 0.332931
vt 0.250070 0.666667
vt 0.000000 0.666667
vt 0.000000 0.333333
vt 0.250070 0.333333
vn 0.0000 0.0000 1.0000
vn -1.0000 0.0000 0.0000
vn 0.0000 1.0000 0.0000
vn 0.0000 0.0000 -1.0000
vn 0.0000 -1.0000 0.0000
vn 1.0000 0.0000 0.0000
g Cube_Cube_Material
usemtl Material
s off
f 1/1/1 5/2/1 7/3/1 3/4/1
f 4/5/2 3/6/2 7/7/2 8/8/2
f 8/9/3 7/10/3 5/11/3 6/12/3
f 6/13/4 2/14/4 4/15/4 8/16/4
f 2/17/5 1/18/5 3/19/5 4/20/5
f 6/21/6 5/22/6 1/23/6 2/24/6
